<?xml version="1.0" encoding="utf-8"?>
<!-- Generator: Adobe Illustrator 28.0.0, SVG Export Plug-In . SVG Version: 6.00 Build 0)  -->
<svg version="1.1"
	 id="Layer_1" xmlns:inkscape="http://www.inkscape.org/namespaces/inkscape" xmlns:sodipodi="http://sodipodi.sourceforge.net/DTD/sodipodi-0.dtd"
	 xmlns="http://www.w3.org/2000/svg" xmlns:xlink="http://www.w3.org/1999/xlink" x="0px" y="0px" viewBox="0 0 612 792"
	 style="enable-background:new 0 0 612 792;" xml:space="preserve">
<style type="text/css">
	.st0{fill:#175298;}
	.st1{opacity:0.7784;stroke:#00D100;enable-background:new    ;}
	
		.st2{fill:url(#ellipse5801_00000124860742508078530610000012735970493306688664_);stroke:url(#ellipse5801_00000144322564937697827190000016257254541372449417_);stroke-width:6.6569;}
	
		.st3{fill:url(#ellipse5787_00000032609271717806058420000004412510077186240932_);stroke:url(#ellipse5787_00000003813657830662484140000013522272294104179132_);stroke-width:6.6569;}
	
		.st4{fill:url(#path8335_00000142152524236370233030000018053567564982751376_);stroke:url(#path8335_00000125601451659783651660000012359274126183907516_);stroke-width:6.6569;}
	
		.st5{fill:url(#ellipse2180_00000005958032241642980450000015628735634810105276_);stroke:url(#ellipse2180_00000131365471926188223330000015582375933560464027_);stroke-width:6.6569;}
	.st6{fill:#FFFFFF;}
	.st7{font-family:'Futura-Medium';}
	.st8{font-size:61.4198px;}
	.st9{fill:none;}
	.st10{font-size:56.6952px;}
	.st11{fill:none;stroke:#000000;stroke-width:0.75;}
	.st12{font-size:45.8241px;}
	.st13{font-size:27.7345px;}
</style>
<rect class="st0" width="612" height="792"/>
<path id="ellipse3218" class="st1" d="M377.3,477.3c6,0,10.9,0,10.9,0S383.3,477.3,377.3,477.3s-10.9,0-10.9,0
	S371.3,477.3,377.3,477.3z"/>
<linearGradient id="ellipse5801_00000156567142974793052020000014828347519892795311_" gradientUnits="userSpaceOnUse" x1="501.0721" y1="311.0911" x2="646.0413" y2="311.0911" gradientTransform="matrix(0.6967 0 0 0.8099 -179.8969 368.1473)">
	<stop  offset="0" style="stop-color:#005BC0"/>
	<stop  offset="1" style="stop-color:#78C0FF"/>
</linearGradient>
<linearGradient id="ellipse5801_00000163768243677650827580000002274886139327024814_" gradientUnits="userSpaceOnUse" x1="498.1308" y1="311.0911" x2="649.1341" y2="311.0911" gradientTransform="matrix(0.6967 0 0 0.8099 -179.8969 368.1473)">
	<stop  offset="0" style="stop-color:#004A88"/>
	<stop  offset="1" style="stop-color:#4092F1"/>
</linearGradient>
<ellipse id="ellipse5801" style="fill:url(#ellipse5801_00000156567142974793052020000014828347519892795311_);stroke:url(#ellipse5801_00000163768243677650827580000002274886139327024814_);stroke-width:6.6569;" cx="219.7" cy="620.1" rx="50.5" ry="33.7"/>
<linearGradient id="ellipse5787_00000063633479422533864300000004636180674825251206_" gradientUnits="userSpaceOnUse" x1="279.6924" y1="406.9739" x2="424.6822" y2="406.9739" gradientTransform="matrix(0.9311 0 0 1.0443 -67.0216 111.5971)">
	<stop  offset="0" style="stop-color:#005BC0"/>
	<stop  offset="1" style="stop-color:#78C0FF"/>
</linearGradient>
<linearGradient id="ellipse5787_00000065046115087801653220000016478481631998922636_" gradientUnits="userSpaceOnUse" x1="276.7109" y1="406.9739" x2="427.6867" y2="406.9739" gradientTransform="matrix(0.9311 0 0 1.0443 -67.0216 111.5971)">
	<stop  offset="0" style="stop-color:#004A88"/>
	<stop  offset="1" style="stop-color:#4092F1"/>
</linearGradient>
<ellipse id="ellipse5787" style="fill:url(#ellipse5787_00000063633479422533864300000004636180674825251206_);stroke:url(#ellipse5787_00000065046115087801653220000016478481631998922636_);stroke-width:6.6569;" cx="260.9" cy="536.6" rx="67.5" ry="43.4"/>
<linearGradient id="path8335_00000137840414275538313360000000205192964030618261_" gradientUnits="userSpaceOnUse" x1="-159.7661" y1="339.0275" x2="193.7571" y2="339.0275" gradientTransform="matrix(1.6229 -0.2918 0.2862 1.6551 175.5247 -290.7203)">
	<stop  offset="0" style="stop-color:#005BC0"/>
	<stop  offset="1" style="stop-color:#78C0FF"/>
</linearGradient>
<linearGradient id="path8335_00000001625988272261122890000016364119236742887871_" gradientUnits="userSpaceOnUse" x1="4.2774" y1="339.0275" x2="152.3238" y2="339.0275" gradientTransform="matrix(1.6229 -0.2918 0.2862 1.6551 175.5247 -290.7203)">
	<stop  offset="0" style="stop-color:#004A88"/>
	<stop  offset="1" style="stop-color:#4092F1"/>
</linearGradient>
<path id="path8335" style="fill:url(#path8335_00000137840414275538313360000000205192964030618261_);stroke:url(#path8335_00000001625988272261122890000016364119236742887871_);stroke-width:6.6569;" d="
	M471.9,342.7c0,0,14.8,3,22.5,0c14.5-5.7,22.1-9,44.7-24.7c8.4-5.8-73.2-41.4-67.4-45.5c5.4-3.9,73.1,42.6,78.5,37.8
	c12.9-11.3,32.4-32.8,35.5-57.4c1.3-9.9-34.9-8.9-34.8-16.2c0-6,36.8,10.7,35.3,2.7c-1.9-10.5-5.1-42.2-9.3-55.6
	c-4.2-13.5-9.5-27.8-15.5-41.6c-6.1-13.8-32.6-38.6-43-51.3c-5.2-6.3,6,60.1,1.9,56.6c-4.1-3.4-4.8-60.2-15-65.9
	c-20.9-27.7-61.8-38.8-76.3-44.9s3.4,38.6,0.3,37.6s-7.3-34.2-23.9-41.5s-45.6-6.5-53.8-7.6c-8.2-1.1,8.1,42.6,4.8,38.1
	c-4.7-6.2-12.3-38.3-19.7-38.6c-29.7-1.2-57.3-2.3-66.6,1.3c-6.5,2.5,7.1,6.8,20.6,36.9c6.7,14.8,29.6,82.8,25.1,83.1
	c-6.2,0.5-17.5-69.8-36.1-91.5C253.5,23.9,262,26.2,249.3,28c-18.9,2.7-39.6,11-54.5,21.3c-6.9,4.7,20.9,37.6,17.8,42.5
	c-5.2,2.4-21.9-40-32.6-34.1c-6.8,3.8-48.1,33.7-58.8,44.7c-7.3,7.5,38.1,42.5,35.7,45.3c-5,6-38.6-38.5-44.2-32.7
	c-5.5,5.8-9.5,10.4-11.2,12.8c-17,23.4-24.7,35.1-37.1,54c-1.7,2.6,30.3,17,28.9,20.6c-1.1,2.9-31-14.9-32.5-11.8
	c-1.5,3.2-13.3,31.7-14.9,35.6c-6.8,16.5,70.9,42.3,68.8,47.3c-2.5,5.6-72-39.4-75.2-29.9c-3.2,9.4-5.9,18.6-8.2,27.8
	c-1.1,4.6-9,38.6-9.9,43.2c-0.9,4.5,40.2,15.4,39.6,19.9c-0.7,4.6-38.8-13.2-39.3-8.6c-0.4,4.6,1,17.3,0.8,22
	c-0.8,18.8,6.4,49.3,13.8,69.3c3.7,9.9,16-13.8,19.4-11.1c5.5,4.2-15.6,18.9-12.1,24.2c3.4,5.2,9.9,10.3,17.2,14.9
	c10.4,6.6,22.6,12.1,30,15.3c6.3,2.7,68.5-28.4,75.3-27.2c6.8,1.2-75.9,27.7-61.1,33.1c13.5,4.8,39.8-4.4,54.2-6.4
	c14.4-2.1,28.8-3.7,42.9-2.1c14.1,1.6,28,6.4,41.8,12c13.9,5.6,27.8,12,42.2,16.7c28.7,9.4,58.9,12,88.3,10.9
	c29.4-1,83.6-17.3,117.6-44c6-3.5-73.8-22.1-71.9-24.5c4.5-5.4,72.4,21.8,79.1,14.7c11.5-12.3,22.4-26.3,24.5-38.1
	c2.1-11.8-2.2-22.2-9.8-31.4c-7.6-9.2-18.5-17.2-29.8-24.1s-22.9-12.8-33.9-17.4c-11.1-4.6-21.7-7.9-30.9-9.9
	c-18.5-3.8-55.9-4.6-62.3-5.2c-6.3-0.6-21.2-3.5-31.9-5.8c-6-2.5-12.3-5.9-17-8.6c-4.6-2.7,11.6,5.3,11.6,5.3"/>
<linearGradient id="ellipse2180_00000055672384489303244840000013173641894604593570_" gradientUnits="userSpaceOnUse" x1="960.1389" y1="110.5619" x2="1105.2319" y2="110.5619" gradientTransform="matrix(0.4376 0 0 0.5295 -167.7271 606.1575)">
	<stop  offset="0" style="stop-color:#005BC0"/>
	<stop  offset="1" style="stop-color:#78C0FF"/>
</linearGradient>
<linearGradient id="ellipse2180_00000115473357855971107680000007550432021629577866_" gradientUnits="userSpaceOnUse" x1="956.6016" y1="110.5619" x2="1108.7662" y2="110.5619" gradientTransform="matrix(0.4376 0 0 0.5295 -167.7271 606.1575)">
	<stop  offset="0" style="stop-color:#004A88"/>
	<stop  offset="1" style="stop-color:#4092F1"/>
</linearGradient>
<ellipse id="ellipse2180" style="fill:url(#ellipse2180_00000055672384489303244840000013173641894604593570_);stroke:url(#ellipse2180_00000115473357855971107680000007550432021629577866_);stroke-width:6.6569;" cx="284.2" cy="664.7" rx="31.7" ry="22"/>
<text transform="matrix(0.9557 0 0 1 102.2236 190.6797)" class="st6 st7 st8">Co</text>
<text transform="matrix(0.9557 0 0 1 102.2236 190.6797)" class="st9 st7 st8">Co</text>
<text transform="matrix(0.9557 0 0 1 178.6797 190.6797)" class="st6 st7 st8">m</text>
<text transform="matrix(0.9557 0 0 1 178.6797 190.6797)" class="st9 st7 st8">m</text>
<text transform="matrix(0.9557 0 0 1 225.7959 190.6797)" class="st6 st7 st8">pu</text>
<text transform="matrix(0.9557 0 0 1 225.7959 190.6797)" class="st9 st7 st8">pu</text>
<text transform="matrix(0.9557 0 0 1 292.9814 190.6797)" class="st6 st7 st8">t</text>
<text transform="matrix(0.9557 0 0 1 292.9814 190.6797)" class="st9 st7 st8">t</text>
<text transform="matrix(0.9557 0 0 1 309.5151 190.6797)" class="st6 st7 st8">ational</text>
<text transform="matrix(0.9557 0 0 1 309.5151 190.6797)" class="st9 st7 st8">ational</text>
<text transform="matrix(0.9557 0 0 1 513.085 190.6797)" class="st6 st7 st10"> </text>
<text transform="matrix(0.9557 0 0 1 513.085 190.6797)" class="st11 st7 st10"> </text>
<text transform="matrix(0.9557 0 0 1 102.2236 255.1709)" class="st6 st7 st8">Cogniti</text>
<text transform="matrix(0.9557 0 0 1 102.2236 255.1709)" class="st9 st7 st8">Cogniti</text>
<text transform="matrix(0.9557 0 0 1 291.2612 255.1709)" class="st6 st7 st8">v</text>
<text transform="matrix(0.9557 0 0 1 291.2612 255.1709)" class="st9 st7 st8">v</text>
<text transform="matrix(0.9557 0 0 1 319.7412 255.1709)" class="st6 st7 st8">e</text>
<text transform="matrix(0.9557 0 0 1 319.7412 255.1709)" class="st9 st7 st8">e</text>
<text transform="matrix(0.9557 0 0 1 369.6348 255.1709)" class="st6 st7 st10"> </text>
<text transform="matrix(0.9557 0 0 1 369.6348 255.1709)" class="st11 st7 st10"> </text>
<text transform="matrix(0.9557 0 0 1 102.2236 319.6616)" class="st6 st7 st8">N</text>
<text transform="matrix(0.9557 0 0 1 102.2236 319.6616)" class="st9 st7 st8">N</text>
<text transform="matrix(0.9557 0 0 1 152.3979 319.6616)" class="st6 st7 st8">eu</text>
<text transform="matrix(0.9557 0 0 1 152.3979 319.6616)" class="st9 st7 st8">eu</text>
<text transform="matrix(0.9557 0 0 1 216.9077 319.6616)" class="st6 st7 st8">r</text>
<text transform="matrix(0.9557 0 0 1 216.9077 319.6616)" class="st9 st7 st8">r</text>
<text transform="matrix(0.9557 0 0 1 238.3154 319.6616)" class="st6 st7 st8">oscience</text>
<text transform="matrix(0.9557 0 0 1 238.3154 319.6616)" class="st9 st7 st8">oscience</text>
<text transform="matrix(0.9557 0 0 1 188.9028 411.2493)" class="st6 st7 st12">5</text>
<text transform="matrix(0.9557 0 0 1 188.9028 411.2493)" class="st9 st7 st12">5</text>
<text transform="matrix(0.9557 0 0 1 215.9175 411.2493)" class="st6 st7 st12">t</text>
<text transform="matrix(0.9557 0 0 1 215.9175 411.2493)" class="st9 st7 st12">t</text>
<text transform="matrix(0.9557 0 0 1 228.7612 411.2493)" class="st6 st7 st12">h Edition</text>
<text transform="matrix(0.9557 0 0 1 228.7612 411.2493)" class="st9 st7 st12">h Edition</text>
<text transform="matrix(0.9557 0 0 1 349.4863 610.208)" class="st6 st7 st13">R</text>
<text transform="matrix(0.9557 0 0 1 364.9688 610.208)" class="st6 st7 st13">andall C. O&apos;</text>
<text transform="matrix(0.9557 0 0 1 513.2935 610.208)" class="st6 st7 st13">R</text>
<text transform="matrix(0.9557 0 0 1 528.8716 610.208)" class="st6 st7 st13">eil</text>
<text transform="matrix(0.9557 0 0 1 556.7778 610.208)" class="st6 st7 st13">l</text>
<text transform="matrix(0.9557 0 0 1 563.5635 610.208)" class="st6 st7 st13">y</text>
<text transform="matrix(0.9557 0 0 1 349.4863 643.5078)" class="st6 st7 st13">Y</text>
<text transform="matrix(0.9557 0 0 1 363.7266 643.5078)" class="st6 st7 st13">u</text>
<text transform="matrix(0.9557 0 0 1 378.1577 643.5078)" class="st6 st7 st13">k</text>
<text transform="matrix(0.9557 0 0 1 390.8682 643.5078)" class="st6 st7 st13">o Muna</text>
<text transform="matrix(0.9557 0 0 1 485.2915 643.5078)" class="st6 st7 st13">k</text>
<text transform="matrix(0.9557 0 0 1 498.0977 643.5078)" class="st6 st7 st13">a</text>
<text transform="matrix(0.9557 0 0 1 513.9624 643.5078)" class="st6 st7 st13">t</text>
<text transform="matrix(0.9557 0 0 1 521.417 643.5078)" class="st6 st7 st13">a</text>
<text transform="matrix(0.9557 0 0 1 349.4863 676.8076)" class="st6 st7 st13">Mi</text>
<text transform="matrix(0.9557 0 0 1 381.5981 676.8076)" class="st6 st7 st13">c</text>
<text transform="matrix(0.9557 0 0 1 394.8823 676.8076)" class="st6 st7 st13">hael J. </text>
<text transform="matrix(0.9557 0 0 1 481.9468 676.8076)" class="st6 st7 st13">F</text>
<text transform="matrix(0.9557 0 0 1 495.231 676.8076)" class="st6 st7 st13">r</text>
<text transform="matrix(0.9557 0 0 1 504.979 676.8076)" class="st6 st7 st13">ank</text>
<text transform="matrix(0.9557 0 0 1 349.4863 710.0078)" class="st6 st7 st13">Thomas E. Hazy</text>
<text transform="matrix(0.9557 0 0 1 349.4863 743.3076)" class="st6 st7 st13">and Contributors</text>
</svg>
