<svg
  width="8.5in"
  height="11in"
  viewBox="0 0 0 0"
  xmlns:inkscape="http://www.inkscape.org/namespaces/inkscape"
  xmlns:sodipodi="http://sodipodi.sourceforge.net/DTD/sodipodi-0.dtd"
  xmlns:xlink="http://www.w3.org/1999/xlink"
  xmlns="http://www.w3.org/2000/svg">
  <defs
    id="Defs">
    <linearGradient
      id="linearGradient7812">
      <stop
        style="stop-color:#280997;stop-opacity:1;"
        offset="0" />
      <stop
        style="stop-color:#C39BF6;stop-opacity:1;"
        offset="1" />
    </linearGradient>
    <linearGradient
      id="linearGradient4810">
      <stop
        style="stop-color:#653FF2;stop-opacity:1;"
        offset="0" />
      <stop
        style="stop-color:#F4DBFF;stop-opacity:1;"
        offset="1" />
    </linearGradient>
    <linearGradient
      id="linearGradient5799"
      x1="312.85715"
      y1="650.57648"
      x2="493.57144"
      y2="650.57648"
      gradientUnits="userSpaceOnUse"
      gradientTransform="matrix(0.931125283241272,0,0,1.0442701578140259,-21.14266586303711,39.61964416503906)"
      xlink:href="#linearGradient4810" />
    <linearGradient
      id="linearGradient5803"
      x1="312.85715"
      y1="650.57648"
      x2="493.57144"
      y2="650.57648"
      gradientUnits="userSpaceOnUse"
      gradientTransform="matrix(0.6966862082481384,0,0,0.8099203705787659,22.105485916137695,296.13189697265625)"
      xlink:href="#linearGradient4810" />
    <linearGradient
      id="linearGradient6838"
      x1="311.35715"
      y1="650.57648"
      x2="495.07144"
      y2="650.57648"
      gradientUnits="userSpaceOnUse"
      gradientTransform="matrix(0.931125283241272,0,0,1.0442701578140259,-21.14266586303711,39.61964416503906)"
      xlink:href="#linearGradient7812" />
    <linearGradient
      id="linearGradient7824"
      x1="311.35715"
      y1="650.57648"
      x2="495.07144"
      y2="650.57648"
      gradientUnits="userSpaceOnUse"
      gradientTransform="matrix(0.6966862082481384,0,0,0.8099203705787659,22.105485916137695,296.13189697265625)"
      xlink:href="#linearGradient7812" />
    <linearGradient
      id="linearGradient10594"
      x1="106.98521"
      y1="393.43359"
      x2="547.3006"
      y2="393.43359"
      gradientUnits="userSpaceOnUse"
      gradientTransform="matrix(1.6228904724121094,-0.29184406995773315,0.2861594259738922,1.6551295518875122,-239.2928466796875,-168.3892059326172)"
      xlink:href="#linearGradient4810" />
    <linearGradient
      id="linearGradient11577"
      x1="311.35715"
      y1="650.57648"
      x2="495.07144"
      y2="650.57648"
      gradientUnits="userSpaceOnUse"
      gradientTransform="matrix(1.6228904724121094,-0.29184406995773315,0.2861594259738922,1.6551295518875122,-239.2928466796875,-168.3892059326172)"
      xlink:href="#linearGradient7812" />
    <linearGradient
      id="linearGradient2182"
      x1="312.85715"
      y1="650.57648"
      x2="493.57144"
      y2="650.57648"
      gradientUnits="userSpaceOnUse"
      gradientTransform="matrix(0.4376152753829956,0,0,0.5295495986938477,206.82620239257812,534.1199951171875)"
      xlink:href="#linearGradient4810" />
    <linearGradient
      id="linearGradient2184"
      x1="311.35715"
      y1="650.57648"
      x2="495.07144"
      y2="650.57648"
      gradientUnits="userSpaceOnUse"
      gradientTransform="matrix(0.4376152753829956,0,0,0.5295495986938477,206.82620239257812,534.1199951171875)"
      xlink:href="#linearGradient7812" />
  </defs>
  <g
    id="layer1"
    inkscape:groupmode="layer"
    style="display:inline">
    <ellipse
      id="ellipse3218"
      style="opacity:0.778378;fill:#000000;fill-opacity:1;stroke:#00d100;stroke-opacity:1;"
      cx="499.2857"
      cy="645.2193"
      rx="13.571428"
      ry="0" />
    <rect
      id="rect1714"
      style="stroke-width:2.06147;fill:#f2f2f2;stroke:#ffffff;"
      x="30.572405"
      y="50.698696"
      width="758.7786"
      height="962.579" />
    <ellipse
      id="ellipse5801"
      style="fill-opacity:1;stroke:url(#linearGradient7824);stroke-width:3.91115;stroke-miterlimit:4;stroke-dasharray:none;stroke-opacity:1;fill:url(#linearGradient5803);"
      cx="303.01932"
      cy="823.04706"
      rx="62.95057"
      ry="41.942307" />
    <ellipse
      id="ellipse3550"
      style="overflow:visible;stroke:#000000;stroke-width:9.48312;marker:none;marker-mid:none;marker-end:none;filter:url(#filter3546);color:#000000;display:inline;opacity:0.798742;stroke-linecap:butt;stroke-dasharray:none;stroke-dashoffset:0;marker-start:none;enable-background:accumulate;fill:none;fill-opacity:1;stroke-linejoin:miter;stroke-miterlimit:4;visibility:visible;fill-rule:nonzero;stroke-opacity:1;"
      transform="matrix(0.75437815,0,0,0.86959425,-0.40360063,257.30966)"
      cx="403.2143"
      cy="650.5765"
      rx="90.35714"
      ry="51.785713" />
    <ellipse
      id="ellipse3536"
      style="stroke-opacity:1;marker-start:none;marker-end:none;color:#000000;overflow:visible;fill:none;stroke-linejoin:miter;stroke-miterlimit:4;visibility:visible;fill-opacity:1;stroke-width:7.74731;stroke-dasharray:none;opacity:0.798742;fill-rule:nonzero;stroke-dashoffset:0;filter:url(#filter3546);enable-background:accumulate;display:inline;stroke:#000000;stroke-linecap:butt;marker:none;marker-mid:none;"
      transform="matrix(0.97295981,0,0,1.1206476,-38.764043,-9.2817271)"
      cx="403.2143"
      cy="650.5765"
      rx="90.35714"
      ry="51.785713" />
    <ellipse
      id="ellipse5787"
      style="stroke-width:3.9443;stroke-miterlimit:4;stroke-dasharray:none;stroke-opacity:1;fill:url(#linearGradient5799);fill-opacity:1;stroke:url(#linearGradient6838);"
      cx="354.30035"
      cy="718.99725"
      rx="84.13382"
      ry="54.078278" />
    <path
      id="path2508"
      style="stroke-dashoffset:0;marker-mid:none;filter:url(#filter3562);fill:none;stroke-width:10;stroke-linejoin:miter;stroke-dasharray:none;enable-background:accumulate;connector-curvature:0;opacity:0.8;fill-opacity:1;marker:none;marker-end:none;display:inline;visibility:visible;fill-rule:nonzero;marker-start:none;stroke-opacity:1;color:#000000;overflow:visible;stroke:#000000;stroke-linecap:butt;stroke-miterlimit:4;"
      transform="matrix(2.0965699,0,0,2.1623254,-618.35019,-661.47866)"
      d="m 483.09375,340.6607 c -5.77138,0.10465 -12.43995,0.23253 -17.25,3 -6.18675,-2.41812 -13.03863,0.82634 -19.27716,1.91804 -8.83575,2.99217 -18.5281,5.98767 -25.25409,12.61321 -0.68152,3.17494 -5.42566,0.29222 -7.5,3.0625 -12.2929,8.26227 -25.28441,16.24477 -35.75,26.71875 -0.95957,2.67244 -0.65772,4.71241 -3.78125,5.59375 -11.62114,11.95011 -20.66526,26.21075 -29.9375,39.90625 -3.23645,8.0511 -8.03544,17.41601 -11.28125,26.28125 -0.77638,2.38816 1.74964,5.13457 -1.5625,5.875 -4.834,7.38515 -5.88996,16.87429 -8.35074,25.25509 -1.05945,7.0772 -4.88927,14.20802 -3.96176,21.33866 0.95294,2.47746 -1.14057,5.80662 -0.1875,8.84375 0.12331,12.92826 1.32302,25.85488 5.3588,38.20519 2.05044,4.89753 2.29926,11.81093 7.2662,14.63856 0.59876,7.71655 9.20909,11.50076 14.92793,15.31354 6.30442,3.01117 12.63312,7.57415 19.72832,8.18646 2.53081,-0.51837 3.50034,3.57786 6.5,3.375 14.90756,2.63279 29.22547,-4.90621 43.96875,-5.03125 26.28928,-3.00194 48.60083,14.58151 73.65625,19.15625 26.09266,5.39104 53.87433,4.9686 79.01989,-4.57733 12.92015,-4.82254 26.40364,-10.40638 36.71724,-19.40646 2.18442,-5.10107 7.92056,-8.12636 11.04412,-13.10996 7.39609,-8.19874 11.61773,-20.72626 5.71875,-30.90625 -3.7825,-7.15659 -10.13476,-12.52564 -16.71875,-17.03125 10.00076,-3.87366 20.14822,-8.87259 28,-16.09375 0.85261,-2.27179 5.22369,-0.859 6.53125,-3.8125 10.47659,-9.41844 20.19702,-21.5048 21.21875,-36.0625 -1.99914,-2.88548 1.46994,-5.34942 0,-8.53125 -2.1078,-15.63779 -4.20463,-31.42229 -10.96875,-45.8125 -5.06742,-16.83878 -19.89534,-27.59155 -31.0625,-40.125 -2.36931,-1.25725 -4.75493,-0.66573 -5.90625,-3.6875 -12.74257,-15.23381 -32.0588,-22.25125 -50.4375,-28 -3.31357,-1.11667 -5.46232,4.24675 -7.6875,0.4375 -11.41658,-6.87452 -25.65388,-5.57313 -38.40625,-6.65625 -2.62867,2.18529 -4.27338,0.45314 -7.09375,-0.21875 -9.08658,-0.36997 -18.18465,-0.73951 -27.28125,-0.65625 z " />
    <path
      id="path8335"
      style="marker-mid:none;color:#000000;fill-opacity:1;stroke-width:6.65686;marker:none;fill-rule:nonzero;stroke-linecap:butt;stroke-dasharray:none;stroke-dashoffset:0;stroke-miterlimit:4;stroke-opacity:1;marker-start:none;enable-background:accumulate;nodetypes:cssscsscscsscsssssssssssscsssscsssscssssscsssssssscscccsscssssscsc;display:inline;fill:url(#linearGradient10594);stroke-linejoin:miter;marker-end:none;connector-curvature:0;overflow:visible;visibility:visible;stroke:url(#linearGradient11577);"
      d="m 617.0402,477.49863 c 0,0 18.42309,3.70363 27.97095,-0.0536 18.01448,-7.08892 27.46378,-11.18737 55.64802,-30.7558 10.44812,-7.25417 -91.12102,-51.51301 -83.9952,-56.68652 6.69609,-4.8615 91.0593,52.99859 97.81221,47.11437 16.11185,-14.02694 40.3891,-40.88918 44.25788,-71.4309 1.55868,-12.30503 -43.44002,-11.0381 -43.39559,-20.239 0.0363,-7.51582 45.8199,13.30685 44.01386,3.42026 -2.39477,-13.07353 -6.3644,-52.49903 -11.61862,-69.30181 -5.25421,-16.80278 -11.79304,-34.626 -19.32612,-51.78137 -7.53977,-17.15625 -40.56976,-48.13525 -53.54192,-63.89584 -6.48609,-7.88028 7.52846,74.84066 2.34373,70.53604 -5.10529,-4.2387 -5.96999,-75.01103 -18.622,-82.13062 -25.97924,-34.53167 -76.98281,-48.33882 -95.03445,-55.97928 -18.05166,-7.640456 4.22894,48.019638 0.42098,46.779438 -3.87644,-1.26254 -9.11908,-42.64451 -29.79285,-51.716606 -20.67377,-9.072093 -56.77863,-8.125267 -66.99077,-9.435867 -10.21213,-1.310599 10.14838,53.046135 5.94833,47.514706 -5.84037,-7.69171 -15.30628,-47.67244 -24.54179,-48.047092 -36.94205,-1.498654 -71.33043,-2.858176 -83.01268,1.564701 -8.0969,3.065494 8.79578,8.438264 25.69492,45.91256 8.28529,18.37287 36.86338,103.08418 31.20815,103.55866 -7.77449,0.6523 -21.85199,-86.94173 -44.94074,-113.96121 -32.50115,-38.034313 -21.93915,-35.179005 -37.70465,-32.901344 -23.59311,3.408503 -49.34005,13.686113 -67.90688,26.513645 -8.55558,5.9109 26.08067,46.89293 22.21712,52.95161 -6.47594,2.95796 -27.28474,-49.86433 -40.66029,-42.42872 -8.52282,4.73792 -59.91319,41.91826 -73.21686,55.64134 -9.0877,9.37419 47.43641,52.9189 44.52591,56.4455 -6.19398,7.5051 -48.13782,-48.00397 -55.01674,-40.74951 -6.87891,7.25446 -11.88385,12.99818 -13.94817,15.94433 -21.21324,29.1928 -30.80636,43.71423 -46.22564,67.21254 -2.14172,3.26386 37.72844,21.15694 35.95175,25.71935 -1.41262,3.62752 -38.65828,-18.59199 -40.4665,-14.6376 -1.80823,3.95442 -16.529331,39.45114 -18.561007,44.36238 -8.47634,20.49017 88.29894,52.69826 85.69082,58.94241 -3.08436,6.91979 -89.69556,-49.03572 -93.684525,-37.28263 -3.98899,11.75308 -7.373688,23.22729 -10.171241,34.6043 -1.398766,5.6885 -11.172115,48.13284 -12.27947,53.79548 -1.107354,5.66262 50.12318,19.12551 49.30296,24.8077 -0.82022,5.68217 -48.365353,-16.47824 -48.902725,-10.73109 -0.537354,5.74714 1.19595,21.56909 0.937143,27.42663 -1.039953,23.4312 7.97237,61.37336 17.24291,86.29969 4.591699,12.34607 19.870462,-17.15107 24.184837,-13.87461 6.815266,5.17573 -19.474997,23.56199 -15.1304,30.19244 4.241175,6.47259 12.335019,12.86375 21.476027,18.61629 13.01374,8.1897 28.14994,15.08498 37.31326,19.07797 7.79986,3.39884 85.30128,-35.42893 93.83291,-33.8838 8.53164,1.54515 -94.51321,34.54676 -76.0622,41.17128 16.76965,6.02085 49.57674,-5.4555 67.53774,-8.02758 17.96098,-2.5721 35.88237,-4.61541 53.45301,-2.62594 17.58206,1.98915 34.81238,8.01043 52.10861,14.99282 17.2962,6.98243 34.65831,14.92599 52.50388,20.75976 35.70124,11.66927 73.33788,14.92707 109.91826,13.62901 36.58536,-1.28503 104.08193,-21.60682 146.53346,-54.82663 7.51072,-4.36683 -91.94421,-27.58729 -89.53303,-30.47206 5.58368,-6.68033 90.14143,27.21193 98.48154,18.28025 14.2918,-15.30558 27.90818,-32.76737 30.45996,-47.42017 2.55693,-14.66068 -2.752,-27.6275 -12.20504,-39.08165 -9.45305,-11.45418 -23.05022,-21.39569 -37.0697,-30.00583 -14.01942,-8.61017 -28.46488,-15.89179 -42.28148,-21.61721 -13.81661,-5.72545 -27.00435,-9.89473 -38.50832,-12.28021 -23.00808,-4.77096 -69.6836,-5.74904 -77.53945,-6.45736 -7.85585,-0.70833 -26.46505,-4.37312 -39.69246,-7.2696 -7.46161,-3.06492 -15.28085,-7.30919 -21.18198,-10.75234 -5.75178,-3.35603 14.42068,6.65872 14.42068,6.65872 " />
    <ellipse
      id="ellipse3556"
      style="fill-rule:nonzero;fill:none;overflow:visible;visibility:visible;stroke-linejoin:miter;stroke-miterlimit:4;stroke-opacity:1;enable-background:accumulate;color:#000000;stroke-linecap:butt;marker:none;filter:url(#filter3546);fill-opacity:1;opacity:0.754717;stroke:#000000;stroke-width:16.8048;stroke-dasharray:none;stroke-dashoffset:0;marker-start:none;marker-mid:none;display:inline;marker-end:none;"
      transform="matrix(0.45928932,0,0,0.58433914,198.84008,498.47527)"
      cx="403.2143"
      cy="650.5765"
      rx="90.35714"
      ry="51.785713" />
    <ellipse
      id="ellipse2180"
      style="fill:url(#linearGradient2182);fill-opacity:1;stroke:url(#linearGradient2184);stroke-width:2.50648;stroke-miterlimit:4;stroke-dasharray:none;stroke-opacity:1;"
      cx="383.27893"
      cy="878.6325"
      rx="39.541664"
      ry="27.423103" />
    <text
      id="text1592"
      style="filter:url(#filter1704);space:preserve;font-size:32px;line-height:1.05;font-family:Arial;-inkscape-font-specification:Arial;"
      transform="matrix(2.1089252,0,0,2.2066938,-626.67026,-684.33028)"
      x="371.42856"
      y="440.71426">
      <tspan
        id="tspan1590"
        style="font-weight:bold;-inkscape-font-specification:&#39;Arial Bold&#39;;font-variant-ligatures:normal;font-variant-caps:normal;font-variant-numeric:normal;fill:#ffffff;font-style:normal;font-variant:normal;font-family:Arial;font-variant-east-asian:normal;role:line;font-stretch:normal;font-size:34.6667px;"
        x="371.42856"
        y="440.71426">Computational</tspan>
      <tspan
        id="tspan1594"
        style="font-style:normal;font-variant:normal;font-weight:bold;-inkscape-font-specification:&#39;Arial Bold&#39;;font-variant-ligatures:normal;font-variant-numeric:normal;font-variant-east-asian:normal;font-stretch:normal;font-size:34.6667px;font-family:Arial;font-variant-caps:normal;fill:#ffffff;role:line;"
        x="371.42856"
        y="477.1143">Cognitive</tspan>
      <tspan
        id="tspan1596"
        style="font-style:normal;font-stretch:normal;font-size:34.6667px;-inkscape-font-specification:&#39;Arial Bold&#39;;font-variant-caps:normal;fill:#ffffff;role:line;font-variant:normal;font-weight:bold;font-family:Arial;font-variant-ligatures:normal;font-variant-numeric:normal;font-variant-east-asian:normal;"
        x="371.42856"
        y="513.51434">Neuroscience</tspan>
    </text>
    <text
      id="text1708"
      style="font-family:Arial;-inkscape-font-specification:Arial;stroke-width:2.15726;space:preserve;text-align:AlignLeft;font-size:23.0108px;line-height:1.25;"
      transform="scale(0.97759632,1.0229171)"
      x="314.5298"
      y="574.505">
      <tspan
        id="tspan1706"
        style="font-style:normal;font-variant:normal;font-stretch:normal;font-family:Arial;-inkscape-font-specification:&#39;Arial Normal&#39;;font-variant-numeric:normal;role:line;font-variant-east-asian:normal;fill:#ffffff;stroke-width:2.15726;font-variant-ligatures:normal;font-weight:normal;font-size:40.2688px;font-variant-caps:normal;"
        x="314.5298"
        y="574.505">5th Edition</tspan>
    </text>
    <text
      id="text1712"
      style="-inkscape-font-specification:Arial;stroke-width:2.15726;space:preserve;font-size:23.0108px;line-height:1.25;font-family:Arial;"
      transform="scale(0.9775963,1.0229171)"
      x="55.453682"
      y="948.94305">
      <tspan
        id="tspan1710"
        style="font-stretch:normal;-inkscape-font-specification:&#39;Arial Bold&#39;;font-variant-caps:normal;stroke-width:2.15726;role:line;font-style:normal;font-variant:normal;font-weight:bold;font-size:23.0108px;font-family:Arial;font-variant-ligatures:normal;font-variant-numeric:normal;font-variant-east-asian:normal;"
        x="55.453682"
        y="948.94305">O&#39;Reilly, R. C., Munakata, Y., Frank, M. J. Hazy, T. E., &amp; Contributors</tspan>
    </text>
  </g>
</svg>
