<?xml version="1.0" encoding="UTF-8" standalone="no"?>
<svg
   xmlns:dc="http://purl.org/dc/elements/1.1/"
   xmlns:cc="http://creativecommons.org/ns#"
   xmlns:rdf="http://www.w3.org/1999/02/22-rdf-syntax-ns#"
   xmlns:svg="http://www.w3.org/2000/svg"
   xmlns="http://www.w3.org/2000/svg"
   xmlns:xlink="http://www.w3.org/1999/xlink"
   xmlns:sodipodi="http://sodipodi.sourceforge.net/DTD/sodipodi-0.dtd"
   xmlns:inkscape="http://www.inkscape.org/namespaces/inkscape"
   version="1.1"
   sodipodi:modified="TRUE"
   inkscape:export-ydpi="29.938162"
   inkscape:export-xdpi="29.938162"
   inkscape:export-filename="/home/oreilly/docs/emergent/brain_bubble_emer_icon.png"
   inkscape:output_extension="org.inkscape.output.svg.inkscape"
   sodipodi:docname="ccnbook_cover.svg"
   inkscape:version="1.0beta2 (2b71d25, 2019-12-03)"
   sodipodi:version="0.32"
   id="svg2195"
   height="11in"
   width="8.5in">
  <defs
     id="defs2197">
    <linearGradient
       id="linearGradient7812">
      <stop
         style="stop-color:#280997;stop-opacity:1;"
         offset="0"
         id="stop7814" />
      <stop
         style="stop-color:#c39bf6;stop-opacity:1;"
         offset="1"
         id="stop7816" />
    </linearGradient>
    <linearGradient
       id="linearGradient4810">
      <stop
         id="stop4812"
         offset="0"
         style="stop-color:#653ff2;stop-opacity:1;" />
      <stop
         id="stop4814"
         offset="1"
         style="stop-color:#f4dbff;stop-opacity:1;" />
    </linearGradient>
    <linearGradient
       gradientTransform="matrix(0.93112527,0,0,1.0442702,-21.142666,39.619645)"
       y2="650.57648"
       x2="493.57144"
       y1="650.57648"
       x1="312.85715"
       gradientUnits="userSpaceOnUse"
       id="linearGradient5799"
       xlink:href="#linearGradient4810"
       inkscape:collect="always" />
    <linearGradient
       gradientTransform="matrix(0.69668618,0,0,0.8099204,22.105485,296.13191)"
       y2="650.57648"
       x2="493.57144"
       y1="650.57648"
       x1="312.85715"
       gradientUnits="userSpaceOnUse"
       id="linearGradient5803"
       xlink:href="#linearGradient4810"
       inkscape:collect="always" />
    <linearGradient
       gradientTransform="matrix(0.93112527,0,0,1.0442702,-21.142666,39.619645)"
       gradientUnits="userSpaceOnUse"
       y2="650.57648"
       x2="495.07144"
       y1="650.57648"
       x1="311.35715"
       id="linearGradient6838"
       xlink:href="#linearGradient7812"
       inkscape:collect="always" />
    <linearGradient
       gradientTransform="matrix(0.69668618,0,0,0.8099204,22.105485,296.13191)"
       gradientUnits="userSpaceOnUse"
       y2="650.57648"
       x2="495.07144"
       y1="650.57648"
       x1="311.35715"
       id="linearGradient7824"
       xlink:href="#linearGradient7812"
       inkscape:collect="always" />
    <marker
       id="ArrowStart"
       viewBox="0 0 10 10"
       refX="10"
       refY="5"
       markerUnits="strokeWidth"
       markerWidth="4"
       markerHeight="3"
       orient="auto">
      <path
         inkscape:connector-curvature="0"
         d="M 10,0 0,5 10,10 Z"
         id="path8137" />
    </marker>
    <marker
       id="ArrowEnd"
       viewBox="0 0 10 10"
       refX="0"
       refY="5"
       markerUnits="strokeWidth"
       markerWidth="4"
       markerHeight="3"
       orient="auto">
      <path
         inkscape:connector-curvature="0"
         d="M 0,0 10,5 0,10 Z"
         id="path8134" />
    </marker>
    <linearGradient
       gradientTransform="matrix(1.6228905,-0.29184408,0.28615943,1.6551296,-239.29284,-168.3892)"
       gradientUnits="userSpaceOnUse"
       y2="393.43359"
       x2="547.3006"
       y1="393.43359"
       x1="106.98521"
       id="linearGradient10594"
       xlink:href="#linearGradient4810"
       inkscape:collect="always" />
    <linearGradient
       gradientTransform="matrix(1.6228905,-0.29184408,0.28615943,1.6551296,-239.29284,-168.3892)"
       y2="650.57648"
       x2="495.07144"
       y1="650.57648"
       x1="311.35715"
       gradientUnits="userSpaceOnUse"
       id="linearGradient11577"
       xlink:href="#linearGradient7812"
       inkscape:collect="always" />
    <linearGradient
       gradientTransform="matrix(0.43761527,0,0,0.52954958,206.8262,534.12)"
       y2="650.57648"
       x2="493.57144"
       y1="650.57648"
       x1="312.85715"
       gradientUnits="userSpaceOnUse"
       id="linearGradient2182"
       xlink:href="#linearGradient4810"
       inkscape:collect="always" />
    <linearGradient
       gradientTransform="matrix(0.43761527,0,0,0.52954958,206.8262,534.12)"
       y2="650.57648"
       x2="495.07144"
       y1="650.57648"
       x1="311.35715"
       gradientUnits="userSpaceOnUse"
       id="linearGradient2184"
       xlink:href="#linearGradient7812"
       inkscape:collect="always" />
    <linearGradient
       y2="393.43359"
       x2="547.3006"
       y1="393.43359"
       x1="106.98521"
       gradientTransform="matrix(0.7695344,-0.132254,0.1356897,0.7500495,183.68476,233.80728)"
       gradientUnits="userSpaceOnUse"
       id="linearGradient2475"
       xlink:href="#linearGradient4810"
       inkscape:collect="always" />
    <linearGradient
       y2="650.57648"
       x2="495.07144"
       y1="650.57648"
       x1="311.35715"
       gradientTransform="matrix(0.7695344,-0.132254,0.1356897,0.7500495,183.68476,233.80728)"
       gradientUnits="userSpaceOnUse"
       id="linearGradient2477"
       xlink:href="#linearGradient7812"
       inkscape:collect="always" />
    <linearGradient
       y2="393.43359"
       x2="547.3006"
       y1="393.43359"
       x1="106.98521"
       gradientTransform="matrix(0.7695344,-0.132254,0.1356897,0.7500495,183.68476,233.80728)"
       gradientUnits="userSpaceOnUse"
       id="linearGradient2488"
       xlink:href="#linearGradient4810"
       inkscape:collect="always" />
    <linearGradient
       y2="650.57648"
       x2="495.07144"
       y1="650.57648"
       x1="311.35715"
       gradientTransform="matrix(0.7695344,-0.132254,0.1356897,0.7500495,183.68476,233.80728)"
       gradientUnits="userSpaceOnUse"
       id="linearGradient2490"
       xlink:href="#linearGradient7812"
       inkscape:collect="always" />
    <linearGradient
       y2="393.43359"
       x2="547.3006"
       y1="393.43359"
       x1="106.98521"
       gradientTransform="matrix(0.7695344,-0.132254,0.1356897,0.7500495,183.68476,233.80728)"
       gradientUnits="userSpaceOnUse"
       id="linearGradient2504"
       xlink:href="#linearGradient4810"
       inkscape:collect="always" />
    <linearGradient
       y2="650.57648"
       x2="495.07144"
       y1="650.57648"
       x1="311.35715"
       gradientTransform="matrix(0.7695344,-0.132254,0.1356897,0.7500495,183.68476,233.80728)"
       gradientUnits="userSpaceOnUse"
       id="linearGradient2506"
       xlink:href="#linearGradient7812"
       inkscape:collect="always" />
    <linearGradient
       y2="393.43359"
       x2="547.3006"
       y1="393.43359"
       x1="106.98521"
       gradientTransform="matrix(0.7695344,-0.132254,0.1356897,0.7500495,183.68476,233.80728)"
       gradientUnits="userSpaceOnUse"
       id="linearGradient2517"
       xlink:href="#linearGradient4810"
       inkscape:collect="always" />
    <linearGradient
       y2="650.57648"
       x2="495.07144"
       y1="650.57648"
       x1="311.35715"
       gradientTransform="matrix(0.7695344,-0.132254,0.1356897,0.7500495,183.68476,233.80728)"
       gradientUnits="userSpaceOnUse"
       id="linearGradient2519"
       xlink:href="#linearGradient7812"
       inkscape:collect="always" />
    <linearGradient
       y2="393.43359"
       x2="547.3006"
       y1="393.43359"
       x1="106.98521"
       gradientTransform="matrix(0.7695344,-0.132254,0.1356897,0.7500495,183.68476,233.80728)"
       gradientUnits="userSpaceOnUse"
       id="linearGradient2521"
       xlink:href="#linearGradient4810"
       inkscape:collect="always" />
    <linearGradient
       y2="650.57648"
       x2="495.07144"
       y1="650.57648"
       x1="311.35715"
       gradientTransform="matrix(0.7695344,-0.132254,0.1356897,0.7500495,183.68476,233.80728)"
       gradientUnits="userSpaceOnUse"
       id="linearGradient2523"
       xlink:href="#linearGradient7812"
       inkscape:collect="always" />
    <linearGradient
       y2="393.43359"
       x2="547.3006"
       y1="393.43359"
       x1="106.98521"
       gradientTransform="matrix(0.7695344,-0.132254,0.1356897,0.7500495,-84.88667,142.37871)"
       gradientUnits="userSpaceOnUse"
       id="linearGradient3507"
       xlink:href="#linearGradient4810"
       inkscape:collect="always" />
    <linearGradient
       y2="650.57648"
       x2="495.07144"
       y1="650.57648"
       x1="311.35715"
       gradientTransform="matrix(0.7695344,-0.132254,0.1356897,0.7500495,-84.88667,142.37871)"
       gradientUnits="userSpaceOnUse"
       id="linearGradient3509"
       xlink:href="#linearGradient7812"
       inkscape:collect="always" />
    <linearGradient
       y2="393.43359"
       x2="547.3006"
       y1="393.43359"
       x1="106.98521"
       gradientTransform="matrix(0.7695344,-0.132254,0.1356897,0.7500495,-84.88667,142.37871)"
       gradientUnits="userSpaceOnUse"
       id="linearGradient3512"
       xlink:href="#linearGradient4810"
       inkscape:collect="always" />
    <linearGradient
       y2="650.57648"
       x2="495.07144"
       y1="650.57648"
       x1="311.35715"
       gradientTransform="matrix(0.7695344,-0.132254,0.1356897,0.7500495,-84.88667,142.37871)"
       gradientUnits="userSpaceOnUse"
       id="linearGradient3514"
       xlink:href="#linearGradient7812"
       inkscape:collect="always" />
    <linearGradient
       y2="393.43359"
       x2="547.3006"
       y1="393.43359"
       x1="106.98521"
       gradientTransform="matrix(0.7695344,-0.132254,0.1356897,0.7500495,-84.88667,142.37871)"
       gradientUnits="userSpaceOnUse"
       id="linearGradient3517"
       xlink:href="#linearGradient4810"
       inkscape:collect="always" />
    <linearGradient
       y2="650.57648"
       x2="495.07144"
       y1="650.57648"
       x1="311.35715"
       gradientTransform="matrix(0.7695344,-0.132254,0.1356897,0.7500495,-84.88667,142.37871)"
       gradientUnits="userSpaceOnUse"
       id="linearGradient3519"
       xlink:href="#linearGradient7812"
       inkscape:collect="always" />
    <linearGradient
       y2="393.43359"
       x2="547.3006"
       y1="393.43359"
       x1="106.98521"
       gradientTransform="matrix(0.7695344,-0.132254,0.1356897,0.7500495,-84.88667,142.37871)"
       gradientUnits="userSpaceOnUse"
       id="linearGradient3522"
       xlink:href="#linearGradient4810"
       inkscape:collect="always" />
    <linearGradient
       y2="650.57648"
       x2="495.07144"
       y1="650.57648"
       x1="311.35715"
       gradientTransform="matrix(0.7695344,-0.132254,0.1356897,0.7500495,-84.88667,142.37871)"
       gradientUnits="userSpaceOnUse"
       id="linearGradient3524"
       xlink:href="#linearGradient7812"
       inkscape:collect="always" />
    <linearGradient
       y2="393.43359"
       x2="547.3006"
       y1="393.43359"
       x1="106.98521"
       gradientTransform="matrix(0.7695344,-0.132254,0.1356897,0.7500495,-84.88667,142.37871)"
       gradientUnits="userSpaceOnUse"
       id="linearGradient3527"
       xlink:href="#linearGradient4810"
       inkscape:collect="always" />
    <linearGradient
       y2="650.57648"
       x2="495.07144"
       y1="650.57648"
       x1="311.35715"
       gradientTransform="matrix(0.7695344,-0.132254,0.1356897,0.7500495,-84.88667,142.37871)"
       gradientUnits="userSpaceOnUse"
       id="linearGradient3529"
       xlink:href="#linearGradient7812"
       inkscape:collect="always" />
    <filter
       id="filter3546"
       inkscape:collect="always">
      <feGaussianBlur
         id="feGaussianBlur3548"
         stdDeviation="3.0357142"
         inkscape:collect="always" />
    </filter>
    <filter
       id="filter3562"
       inkscape:collect="always">
      <feGaussianBlur
         id="feGaussianBlur3564"
         stdDeviation="3.2065037"
         inkscape:collect="always" />
    </filter>
    <filter
       id="filter1704"
       inkscape:label="Drop Shadow"
       style="color-interpolation-filters:sRGB">
      <feFlood
         id="feFlood1694"
         result="flood"
         flood-color="rgb(0,0,0)"
         flood-opacity="0.498039" />
      <feComposite
         id="feComposite1696"
         result="composite1"
         operator="in"
         in2="SourceGraphic"
         in="flood" />
      <feGaussianBlur
         id="feGaussianBlur1698"
         result="blur"
         stdDeviation="3"
         in="composite1" />
      <feOffset
         id="feOffset1700"
         result="offset"
         dy="3"
         dx="3" />
      <feComposite
         id="feComposite1702"
         result="composite2"
         operator="over"
         in2="offset"
         in="SourceGraphic" />
    </filter>
  </defs>
  <sodipodi:namedview
     units="in"
     showgrid="false"
     inkscape:document-rotation="0"
     inkscape:window-y="22"
     inkscape:window-x="121"
     inkscape:window-height="953"
     inkscape:window-width="1096"
     inkscape:current-layer="layer1"
     inkscape:document-units="px"
     inkscape:cy="595.69256"
     inkscape:cx="491.20954"
     inkscape:zoom="0.9629207"
     inkscape:pageshadow="2"
     inkscape:pageopacity="0.0"
     objecttolerance="10"
     guidetolerance="10"
     gridtolerance="10000"
     borderopacity="1.0"
     bordercolor="#666666"
     pagecolor="#ffffff"
     id="base" />
  <metadata
     id="metadata2200">
    <rdf:RDF>
      <cc:Work
         rdf:about="">
        <dc:format>image/svg+xml</dc:format>
        <dc:type
           rdf:resource="http://purl.org/dc/dcmitype/StillImage" />
        <dc:title></dc:title>
      </cc:Work>
    </rdf:RDF>
  </metadata>
  <g
     id="layer1"
     inkscape:groupmode="layer"
     inkscape:label="Layer 1">
    <ellipse
       ry="0"
       rx="13.571428"
       cy="645.2193"
       cx="499.28571"
       id="path3218"
       style="opacity:0.778378;fill:#000000;fill-opacity:1;stroke:#00d100;stroke-opacity:1" />
    <rect
       y="50.698696"
       x="30.572405"
       height="962.57898"
       width="758.77863"
       id="rect1714"
       style="fill:#f2f2f2;stroke:#ffffff;stroke-width:2.06147" />
    <ellipse
       ry="41.942307"
       rx="62.950569"
       cy="823.04706"
       cx="303.01932"
       style="fill:url(#linearGradient5803);fill-opacity:1;stroke:url(#linearGradient7824);stroke-width:3.91115;stroke-miterlimit:4;stroke-dasharray:none;stroke-opacity:1"
       id="path5801" />
    <ellipse
       ry="51.785713"
       rx="90.35714"
       cy="650.57648"
       cx="403.21429"
       transform="matrix(0.75437815,0,0,0.86959425,-0.40360063,257.30966)"
       id="path3550"
       style="color:#000000;display:inline;overflow:visible;visibility:visible;opacity:0.798742;fill:none;fill-opacity:1;fill-rule:nonzero;stroke:#000000;stroke-width:9.48312;stroke-linecap:butt;stroke-linejoin:miter;stroke-miterlimit:4;stroke-dasharray:none;stroke-dashoffset:0;stroke-opacity:1;marker:none;marker-start:none;marker-mid:none;marker-end:none;filter:url(#filter3546);enable-background:accumulate" />
    <ellipse
       ry="51.785713"
       rx="90.35714"
       cy="650.57648"
       cx="403.21429"
       style="color:#000000;display:inline;overflow:visible;visibility:visible;opacity:0.798742;fill:none;fill-opacity:1;fill-rule:nonzero;stroke:#000000;stroke-width:7.74731;stroke-linecap:butt;stroke-linejoin:miter;stroke-miterlimit:4;stroke-dasharray:none;stroke-dashoffset:0;stroke-opacity:1;marker:none;marker-start:none;marker-mid:none;marker-end:none;filter:url(#filter3546);enable-background:accumulate"
       id="path3536"
       transform="matrix(0.97295981,0,0,1.1206476,-38.764043,-9.2817271)" />
    <ellipse
       ry="54.078278"
       rx="84.13382"
       cy="718.99725"
       cx="354.30035"
       id="path5787"
       style="fill:url(#linearGradient5799);fill-opacity:1;stroke:url(#linearGradient6838);stroke-width:3.9443;stroke-miterlimit:4;stroke-dasharray:none;stroke-opacity:1" />
    <path
       inkscape:connector-curvature="0"
       transform="matrix(2.0965699,0,0,2.1623254,-618.35019,-661.47866)"
       style="color:#000000;display:inline;overflow:visible;visibility:visible;opacity:0.8;fill:none;fill-opacity:1;fill-rule:nonzero;stroke:#000000;stroke-width:10;stroke-linecap:butt;stroke-linejoin:miter;stroke-miterlimit:4;stroke-dasharray:none;stroke-dashoffset:0;stroke-opacity:1;marker:none;marker-start:none;marker-mid:none;marker-end:none;filter:url(#filter3562);enable-background:accumulate"
       d="m 483.09375,340.66071 c -5.77138,0.10465 -12.43995,0.23253 -17.25,3 -6.18675,-2.41812 -13.03863,0.82634 -19.27716,1.91804 -8.83575,2.99217 -18.5281,5.98767 -25.25409,12.61321 -0.68152,3.17494 -5.42566,0.29222 -7.5,3.0625 -12.2929,8.26227 -25.28441,16.24477 -35.75,26.71875 -0.95957,2.67244 -0.65772,4.71241 -3.78125,5.59375 -11.62114,11.95011 -20.66526,26.21075 -29.9375,39.90625 -3.23645,8.0511 -8.03544,17.41601 -11.28125,26.28125 -0.77638,2.38816 1.74964,5.13457 -1.5625,5.875 -4.834,7.38515 -5.88996,16.87429 -8.35074,25.25509 -1.05945,7.0772 -4.88927,14.20802 -3.96176,21.33866 0.95294,2.47746 -1.14057,5.80662 -0.1875,8.84375 0.12331,12.92826 1.32302,25.85488 5.3588,38.20519 2.05044,4.89753 2.29926,11.81093 7.2662,14.63856 0.59876,7.71655 9.20909,11.50076 14.92793,15.31354 6.30442,3.01117 12.63312,7.57415 19.72832,8.18646 2.53081,-0.51837 3.50034,3.57786 6.5,3.375 14.90756,2.63279 29.22547,-4.90621 43.96875,-5.03125 26.28928,-3.00194 48.60083,14.58151 73.65625,19.15625 26.09266,5.39104 53.87433,4.9686 79.01989,-4.57733 12.92015,-4.82254 26.40364,-10.40638 36.71724,-19.40646 2.18442,-5.10107 7.92056,-8.12636 11.04412,-13.10996 7.39609,-8.19874 11.61773,-20.72626 5.71875,-30.90625 -3.7825,-7.15659 -10.13476,-12.52564 -16.71875,-17.03125 10.00076,-3.87366 20.14822,-8.87259 28,-16.09375 0.85261,-2.27179 5.22369,-0.859 6.53125,-3.8125 10.47659,-9.41844 20.19702,-21.5048 21.21875,-36.0625 -1.99914,-2.88548 1.46994,-5.34942 0,-8.53125 -2.1078,-15.63779 -4.20463,-31.42229 -10.96875,-45.8125 -5.06742,-16.83878 -19.89534,-27.59155 -31.0625,-40.125 -2.36931,-1.25725 -4.75493,-0.66573 -5.90625,-3.6875 -12.74257,-15.23381 -32.0588,-22.25125 -50.4375,-28 -3.31357,-1.11667 -5.46232,4.24675 -7.6875,0.4375 -11.41658,-6.87452 -25.65388,-5.57313 -38.40625,-6.65625 -2.62867,2.18529 -4.27338,0.45314 -7.09375,-0.21875 -9.08658,-0.36997 -18.18465,-0.73951 -27.28125,-0.65625 z"
       id="path2508" />
    <path
       inkscape:connector-curvature="0"
       sodipodi:nodetypes="cssscsscscsscsssssssssssscsssscsssscssssscsssssssscscccsscssssscsc"
       id="path8335"
       d="m 617.04024,477.49864 c 0,0 18.42309,3.70363 27.97095,-0.0536 18.01448,-7.08892 27.46378,-11.18737 55.64802,-30.7558 10.44812,-7.25417 -91.12102,-51.51301 -83.9952,-56.68652 6.69609,-4.8615 91.0593,52.99859 97.81221,47.11437 16.11185,-14.02694 40.3891,-40.88918 44.25788,-71.4309 1.55868,-12.30503 -43.44002,-11.0381 -43.39559,-20.239 0.0363,-7.51582 45.8199,13.30685 44.01386,3.42026 -2.39477,-13.07353 -6.3644,-52.49903 -11.61862,-69.30181 -5.25421,-16.80278 -11.79304,-34.626 -19.32612,-51.78137 -7.53977,-17.15625 -40.56976,-48.13525 -53.54192,-63.89584 -6.48609,-7.88028 7.52846,74.84066 2.34373,70.53604 -5.10529,-4.2387 -5.96999,-75.01103 -18.622,-82.13062 -25.97924,-34.53167 -76.98281,-48.33882 -95.03445,-55.979279 -18.05166,-7.640456 4.22894,48.019639 0.42098,46.779439 -3.87644,-1.26254 -9.11908,-42.64451 -29.79285,-51.716607 -20.67377,-9.072093 -56.77863,-8.125267 -66.99077,-9.435867 -10.21213,-1.310599 10.14838,53.046134 5.94833,47.514704 -5.84037,-7.69171 -15.30628,-47.672438 -24.54179,-48.047091 -36.94205,-1.498654 -71.33043,-2.858176 -83.01268,1.564701 -8.0969,3.065494 8.79578,8.438264 25.69492,45.91256 8.28529,18.37287 36.86338,103.08418 31.20815,103.55866 -7.77449,0.6523 -21.85199,-86.94173 -44.94074,-113.96121 -32.50115,-38.034314 -21.93915,-35.179006 -37.70465,-32.901345 -23.59311,3.408503 -49.34005,13.686113 -67.90688,26.513645 -8.55558,5.9109 26.08067,46.89293 22.21712,52.95161 -6.47594,2.95796 -27.28474,-49.86433 -40.66029,-42.42872 -8.52282,4.73792 -59.91319,41.91826 -73.21686,55.64134 -9.0877,9.37419 47.43641,52.9189 44.52591,56.4455 -6.19398,7.5051 -48.13782,-48.00397 -55.01674,-40.74951 -6.87891,7.25446 -11.88385,12.99818 -13.94817,15.94433 -21.21324,29.1928 -30.80636,43.71423 -46.22564,67.21254 -2.14172,3.26386 37.72844,21.15694 35.95175,25.71935 -1.41262,3.62752 -38.65828,-18.59199 -40.4665,-14.6376 -1.80823,3.95442 -16.529331,39.45114 -18.561006,44.36238 -8.47634,20.49017 88.298946,52.69826 85.690816,58.94241 -3.08436,6.91979 -89.695559,-49.03572 -93.684528,-37.28263 -3.98899,11.75308 -7.373688,23.22729 -10.171241,34.6043 -1.398766,5.6885 -11.172115,48.13284 -12.27947,53.79548 -1.107354,5.66262 50.123179,19.12551 49.302959,24.8077 -0.82022,5.68217 -48.365352,-16.47824 -48.902727,-10.73109 -0.537354,5.74714 1.19595,21.56909 0.937143,27.42663 -1.039953,23.4312 7.97237,61.37336 17.24291,86.29969 4.591699,12.34607 19.870462,-17.15107 24.184838,-13.87461 6.815266,5.17573 -19.474997,23.56199 -15.1304,30.19244 4.241175,6.47259 12.335019,12.86375 21.476026,18.61629 13.01374,8.1897 28.14994,15.08498 37.31326,19.07797 7.79986,3.39884 85.30128,-35.42893 93.83291,-33.8838 8.53164,1.54515 -94.51321,34.54676 -76.0622,41.17128 16.76965,6.02085 49.57674,-5.4555 67.53774,-8.02758 17.96098,-2.5721 35.88237,-4.61541 53.45301,-2.62594 17.58206,1.98915 34.81238,8.01043 52.10861,14.99282 17.2962,6.98243 34.65831,14.92599 52.50388,20.75976 35.70124,11.66927 73.33788,14.92707 109.91826,13.62901 36.58536,-1.28503 104.08193,-21.60682 146.53346,-54.82663 7.51072,-4.36683 -91.94421,-27.58729 -89.53303,-30.47206 5.58368,-6.68033 90.14143,27.21193 98.48154,18.28025 14.2918,-15.30558 27.90818,-32.76737 30.45996,-47.42017 2.55693,-14.66068 -2.752,-27.6275 -12.20504,-39.08165 -9.45305,-11.45418 -23.05022,-21.39569 -37.0697,-30.00583 -14.01942,-8.61017 -28.46488,-15.89179 -42.28148,-21.61721 -13.81661,-5.72545 -27.00435,-9.89473 -38.50832,-12.28021 -23.00808,-4.77096 -69.6836,-5.74904 -77.53945,-6.45736 -7.85585,-0.70833 -26.46505,-4.37312 -39.69246,-7.2696 -7.46161,-3.06492 -15.28085,-7.30919 -21.18198,-10.75234 -5.75178,-3.35603 14.42068,6.65872 14.42068,6.65872"
       style="color:#000000;display:inline;overflow:visible;visibility:visible;fill:url(#linearGradient10594);fill-opacity:1;fill-rule:nonzero;stroke:url(#linearGradient11577);stroke-width:6.65686;stroke-linecap:butt;stroke-linejoin:miter;stroke-miterlimit:4;stroke-dasharray:none;stroke-dashoffset:0;stroke-opacity:1;marker:none;marker-start:none;marker-mid:none;marker-end:none;enable-background:accumulate" />
    <ellipse
       ry="51.785713"
       rx="90.35714"
       cy="650.57648"
       cx="403.21429"
       style="color:#000000;display:inline;overflow:visible;visibility:visible;opacity:0.754717;fill:none;fill-opacity:1;fill-rule:nonzero;stroke:#000000;stroke-width:16.8048;stroke-linecap:butt;stroke-linejoin:miter;stroke-miterlimit:4;stroke-dasharray:none;stroke-dashoffset:0;stroke-opacity:1;marker:none;marker-start:none;marker-mid:none;marker-end:none;filter:url(#filter3546);enable-background:accumulate"
       id="path3556"
       transform="matrix(0.45928932,0,0,0.58433914,198.84008,498.47527)" />
    <ellipse
       ry="27.423103"
       rx="39.541664"
       cy="878.63251"
       cx="383.27893"
       id="path2180"
       style="fill:url(#linearGradient2182);fill-opacity:1;stroke:url(#linearGradient2184);stroke-width:2.50648;stroke-miterlimit:4;stroke-dasharray:none;stroke-opacity:1" />
    <text
       transform="matrix(2.1089252,0,0,2.2066938,-626.67026,-684.33028)"
       id="text1592"
       y="440.71426"
       x="371.42856"
       style="font-size:32px;line-height:1.05;font-family:Arial;-inkscape-font-specification:Arial;filter:url(#filter1704)"
       xml:space="preserve"><tspan
         style="font-style:normal;font-variant:normal;font-weight:bold;font-stretch:normal;font-size:34.6667px;font-family:Arial;-inkscape-font-specification:'Arial Bold';font-variant-ligatures:normal;font-variant-caps:normal;font-variant-numeric:normal;font-variant-east-asian:normal;fill:#ffffff"
         y="440.71426"
         x="371.42856"
         id="tspan1590"
         sodipodi:role="line">Computational</tspan><tspan
         style="font-style:normal;font-variant:normal;font-weight:bold;font-stretch:normal;font-size:34.6667px;font-family:Arial;-inkscape-font-specification:'Arial Bold';font-variant-ligatures:normal;font-variant-caps:normal;font-variant-numeric:normal;font-variant-east-asian:normal;fill:#ffffff"
         id="tspan1594"
         y="477.11429"
         x="371.42856"
         sodipodi:role="line">Cognitive</tspan><tspan
         style="font-style:normal;font-variant:normal;font-weight:bold;font-stretch:normal;font-size:34.6667px;font-family:Arial;-inkscape-font-specification:'Arial Bold';font-variant-ligatures:normal;font-variant-caps:normal;font-variant-numeric:normal;font-variant-east-asian:normal;fill:#ffffff"
         id="tspan1596"
         y="513.51434"
         x="371.42856"
         sodipodi:role="line">Neuroscience</tspan></text>
    <text
       transform="scale(0.97759632,1.0229171)"
       id="text1708"
       y="574.505"
       x="314.52979"
       style="font-size:23.0108px;line-height:1.25;font-family:Arial;-inkscape-font-specification:Arial;stroke-width:2.15726"
       xml:space="preserve"><tspan
         style="font-style:normal;font-variant:normal;font-weight:normal;font-stretch:normal;font-size:40.2688px;font-family:Arial;-inkscape-font-specification:'Arial Normal';font-variant-ligatures:normal;font-variant-caps:normal;font-variant-numeric:normal;font-variant-east-asian:normal;fill:#ffffff;stroke-width:2.15726"
         y="574.505"
         x="314.52979"
         id="tspan1706"
         sodipodi:role="line">4th Edition</tspan></text>
    <text
       transform="scale(0.9775963,1.0229171)"
       id="text1712"
       y="948.94305"
       x="55.453682"
       style="font-size:23.0108px;line-height:1.25;font-family:Arial;-inkscape-font-specification:Arial;stroke-width:2.15726"
       xml:space="preserve"><tspan
         style="font-style:normal;font-variant:normal;font-weight:bold;font-stretch:normal;font-size:23.0108px;font-family:Arial;-inkscape-font-specification:'Arial Bold';font-variant-ligatures:normal;font-variant-caps:normal;font-variant-numeric:normal;font-variant-east-asian:normal;stroke-width:2.15726"
         y="948.94305"
         x="55.453682"
         id="tspan1710"
         sodipodi:role="line">O'Reilly, R. C., Munakata, Y., Frank, M. J. Hazy, T. E., &amp; Contributors</tspan></text>
  </g>
</svg>
